<svg xmlns="http://www.w3.org/2000/svg" width="412.387" height="412.387" viewBox="0 0 412.387 412.387" xml:space="preserve"><defs><linearGradient id="a" x1="-.828%" x2="57.636%" y1="7.652%" y2="78.411%"><stop offset="0%" stop-color="#41d1ff"/><stop offset="100%" stop-color="#bd34fe"/></linearGradient><linearGradient id="b" x1="43.376%" x2="50.316%" y1="2.242%" y2="89.03%"><stop offset="0%" stop-color="#ffea83"/><stop offset="8.333%" stop-color="#ffdd35"/><stop offset="100%" stop-color="#ffa800"/></linearGradient></defs><path fill="url(#a)" d="M226.277 206.762q-.52-.298-1.047-.561a34 34 0 0 0 1.047-.578c13.224-7.634 12.246-19.536 12.246-19.536-9.733 5.622-12.809-2.192-21.795 2.995q-.521.302-1.011.627.025-.582.024-1.195c0-15.268-10.794-20.374-10.794-20.374 0 11.243-8.304 9.996-8.304 20.374q0 .598.037 1.186a31 31 0 0 0-1.022-.617c-13.222-7.634-23.042-.837-23.042-.837 9.736 5.621 4.505 12.19 13.492 17.378q.521.298 1.048.561a34 34 0 0 0-1.048.578c-13.223 7.634-12.246 19.535-12.246 19.535 9.734-5.621 12.809 2.192 21.796-2.995q.52-.3 1.01-.627-.024.585-.024 1.195c0 15.269 10.794 20.375 10.794 20.375 0-11.243 8.303-9.996 8.303-20.375q0-.599-.036-1.186.49.31 1.022.616c13.221 7.634 23.041.839 23.041.839-9.735-5.62-4.503-12.191-13.491-17.378"/><path fill="url(#b)" d="M315.029 209.275a109 109 0 0 0-5.678-3.04 177 177 0 0 0 5.678-3.126c71.65-41.368 66.359-105.857 66.359-105.857-52.752 30.457-69.406-11.89-118.107 16.228a108 108 0 0 0-5.473 3.396c.078-2.111.133-4.257.133-6.479C257.941 27.663 199.446 0 199.446 0c0 60.913-45.001 54.163-45.001 110.398 0 2.164.079 4.303.205 6.423a178 178 0 0 0-5.545-3.34C77.455 72.113 24.25 108.94 24.25 108.94c52.753 30.457 24.406 66.053 73.107 94.171a108 108 0 0 0 5.678 3.04 175 175 0 0 0-5.678 3.126c-71.65 41.367-66.36 105.856-66.36 105.856 52.753-30.457 69.407 11.89 118.108-16.228a109 109 0 0 0 5.472-3.396 175 175 0 0 0-.132 6.479c0 82.736 58.495 110.398 58.495 110.398 0-60.912 45.002-54.162 45.002-110.398 0-2.164-.08-4.303-.205-6.422a179 179 0 0 0 5.545 3.34c71.65 41.367 124.855 4.541 124.855 4.541-52.754-30.457-24.407-66.052-73.108-94.172m-90.009 27.493a59 59 0 0 1-1.83-1.103c.043.7.069 1.403.069 2.118 0 18.545-14.842 16.318-14.842 36.404 0 0-19.289-9.121-19.289-36.404 0-.732.018-1.441.043-2.139q-.878.583-1.804 1.123c-16.06 9.271-21.554-4.691-38.951 5.353 0 0-1.743-21.269 21.885-34.91a56 56 0 0 1 1.874-1.031 36 36 0 0 1-1.874-1.002c-16.061-9.272-6.712-21.012-24.108-31.055 0 0 17.546-12.146 41.174 1.497a63 63 0 0 1 1.829 1.101 35 35 0 0 1-.069-2.117c0-18.545 14.842-16.318 14.842-36.405 0 0 19.289 9.121 19.289 36.405 0 .732-.018 1.441-.043 2.138a35 35 0 0 1 1.805-1.121c16.059-9.271 21.553 4.691 38.951-5.353 0 0 1.742 21.269-21.886 34.91-.634.366-1.257.704-1.874 1.031q.944.468 1.874 1.002c16.062 9.272 6.712 21.013 24.108 31.056 0-.002-17.547 12.144-41.173-1.498"/></svg>
